<?xml version="1.0" encoding="UTF-8" standalone="no"?>
<!-- Created with Inkscape (http://www.inkscape.org/) -->

<svg
   xmlns:dc="http://purl.org/dc/elements/1.1/"
   xmlns:cc="http://creativecommons.org/ns#"
   xmlns:rdf="http://www.w3.org/1999/02/22-rdf-syntax-ns#"
   xmlns:svg="http://www.w3.org/2000/svg"
   xmlns="http://www.w3.org/2000/svg"
   xmlns:xlink="http://www.w3.org/1999/xlink"
   xmlns:sodipodi="http://sodipodi.sourceforge.net/DTD/sodipodi-0.dtd"
   xmlns:inkscape="http://www.inkscape.org/namespaces/inkscape"
   width="297mm"
   height="100mm"
   viewBox="0 0 297 100"
   version="1.1"
   id="svg8"
   inkscape:export-filename="/home/jakob/work_meggs/jakob/Meggsimum/02_Code/meggsimum-website/static/img/gs-node.svg.png"
   inkscape:export-xdpi="50"
   inkscape:export-ydpi="50"
   inkscape:version="0.92.5 (2060ec1f9f, 2020-04-08)"
   sodipodi:docname="gs-node.svg">
  <defs
     id="defs2">
    <path
       inkscape:connector-curvature="0"
       d="M 80,42.457 41.912,80.543 c -8.89,8.89 -8.89,23.442 0,32.337 L 80,150.965 c 8.892,8.894 23.45,8.895 32.342,0 l 38.086,-38.085 c 8.897,-8.896 8.894,-23.447 0.001,-32.337 L 112.341,42.457 c -4.447,-4.45 -10.309,-6.672 -16.169,-6.672 -5.862,0 -11.726,2.224 -16.172,6.672"
       id="SVGID_1_" />
    <filter
       height="256.28299"
       width="256.28299"
       y="-31.433001"
       x="-31.976999"
       filterUnits="userSpaceOnUse"
       id="Adobe_OpacityMaskFilter">
      <feColorMatrix
         id="feColorMatrix39"
         values="1 0 0 0 0  0 1 0 0 0  0 0 1 0 0  0 0 0 1 0"
         type="matrix" />
    </filter>
    <rect
       height="128.17599"
       width="128.17799"
       y="32.622002"
       x="32.075001"
       id="SVGID_5_" />
    <path
       inkscape:connector-curvature="0"
       d="m 96.157,32.621 c -6.656,-0.003 -13.34,2.536 -18.4,7.597 L 39.67,78.303 c -4.984,4.983 -7.527,11.542 -7.595,18.098 v 0.569 c 0.068,6.564 2.597,13.144 7.597,18.141 l 38.084,38.087 c 5.06,5.063 11.746,7.603 18.402,7.6 h 0.007 c 6.653,0 13.341,-2.535 18.405,-7.6 l 38.084,-38.087 c 5.068,-5.065 7.599,-11.756 7.598,-18.412 10e-4,-6.651 -2.533,-13.335 -7.592,-18.395 L 114.57,40.217 C 109.508,35.151 102.821,32.62 96.169,32.62 h -0.012 z"
       id="SVGID_7_" />
    <rect
       height="128.17599"
       width="128.177"
       y="32.622002"
       x="32.082001"
       id="SVGID_10_" />
    <rect
       height="128.17599"
       width="128.177"
       y="32.622002"
       x="32.082001"
       id="SVGID_12_" />
    <rect
       height="87.036003"
       width="124.887"
       y="32.620998"
       x="32.082001"
       id="SVGID_14_" />
    <rect
       height="87.036003"
       width="124.887"
       y="32.620998"
       x="32.082001"
       id="SVGID_16_" />
  </defs>
  <sodipodi:namedview
     id="base"
     pagecolor="#ffffff"
     bordercolor="#666666"
     borderopacity="1.0"
     inkscape:pageopacity="0.0"
     inkscape:pageshadow="2"
     inkscape:zoom="0.7"
     inkscape:cx="511.01131"
     inkscape:cy="390.50277"
     inkscape:document-units="mm"
     inkscape:current-layer="layer1"
     showgrid="false"
     inkscape:window-width="1680"
     inkscape:window-height="1019"
     inkscape:window-x="0"
     inkscape:window-y="0"
     inkscape:window-maximized="1" />
  <metadata
     id="metadata5">
    <rdf:RDF>
      <cc:Work
         rdf:about="">
        <dc:format>image/svg+xml</dc:format>
        <dc:type
           rdf:resource="http://purl.org/dc/dcmitype/StillImage" />
        <dc:title />
      </cc:Work>
    </rdf:RDF>
  </metadata>
  <g
     inkscape:label="Layer 1"
     inkscape:groupmode="layer"
     id="layer1"
     transform="translate(0,-197)">
    <g
       transform="matrix(0.51870987,0,0,0.51870987,198.56268,193.07631)"
       id="g136">
      <path
         d="M 151.95588,85.763086 106.33043,40.136028 c -6.07246,-6.068912 -14.0868,-9.100973 -22.064006,-9.100973 -7.967621,0 -15.97837,3.038051 -22.037644,9.100973 L 16.599738,85.763086 c -6.059274,6.053339 -9.1008907,14.052182 -9.0984947,22.019874 -0.0024,7.97608 3.0260427,16.00128 9.1020877,22.07738 l 45.624251,45.62586 c 6.059274,6.06173 14.070023,9.10217 22.043635,9.10097 h 0.01438 c 7.967623,0 15.975973,-3.03685 22.043633,-9.10097 l 45.62305,-45.62586 c 6.06766,-6.06891 9.10329,-14.08812 9.09969,-22.05941 0.004,-7.968892 -3.03682,-15.978515 -9.09609,-22.037844"
         id="path20"
         inkscape:connector-curvature="0"
         style="fill:#0092c8;stroke-width:1.19796395" />
      <g
         transform="matrix(1.1979585,0,0,1.1979693,-30.931662,-8.0439023)"
         id="g37">
        <defs
           id="defs25">
          <path
             inkscape:connector-curvature="0"
             d="M 80,42.457 41.912,80.543 c -8.89,8.89 -8.89,23.442 0,32.337 L 80,150.965 c 8.892,8.894 23.45,8.895 32.342,0 l 38.086,-38.085 c 8.897,-8.896 8.894,-23.447 0.001,-32.337 L 112.341,42.457 c -4.447,-4.45 -10.309,-6.672 -16.169,-6.672 -5.862,0 -11.726,2.224 -16.172,6.672"
             id="path896" />
        </defs>
        <clipPath
           id="SVGID_2_">
          <use
             height="100%"
             width="100%"
             y="0"
             x="0"
             style="overflow:visible"
             id="use27"
             overflow="visible"
             xlink:href="#SVGID_1_" />
        </clipPath>
        <linearGradient
           gradientTransform="matrix(62.1889,-26.3976,-26.3976,-62.1889,15385.853,36072.457)"
           y2="578.58588"
           x2="0.59909999"
           y1="578.58588"
           x1="-1.1152"
           gradientUnits="userSpaceOnUse"
           id="SVGID_3_">
          <stop
             id="stop30"
             style="stop-color:#0092C8"
             offset="0" />
          <stop
             id="stop32"
             style="stop-color:#00AFDD"
             offset="1" />
        </linearGradient>
        <polygon
           style="fill:url(#SVGID_3_)"
           id="polygon35"
           points="52.304,205.288 -11.605,54.728 140.042,-9.643 203.951,140.918 "
           clip-path="url(#SVGID_2_)" />
      </g>
      <g
         id="g134">
        <defs
           id="defs42">
          <filter
             height="256.28299"
             width="256.28299"
             y="-31.433001"
             x="-31.976999"
             filterUnits="userSpaceOnUse"
             id="filter908">
            <feColorMatrix
               id="feColorMatrix906"
               values="1 0 0 0 0  0 1 0 0 0  0 0 1 0 0  0 0 0 1 0"
               type="matrix" />
          </filter>
        </defs>
        <mask
           id="SVGID_4_"
           height="256.283"
           width="256.283"
           y="-31.433"
           x="-31.977"
           maskUnits="userSpaceOnUse">
          <g
             style="filter:url(#Adobe_OpacityMaskFilter)"
             id="g64">
            <rect
               id="rect44"
               height="128.179"
               width="128.185"
               y="32.618"
               x="32.070999" />
            <g
               id="g62"
               enable-background="new    ">
              <path
                 style="fill:#ffffff"
                 inkscape:connector-curvature="0"
                 id="path46"
                 d="m 74.216,116.232 c 10.716,-7.749 -7.75,-15.5 -12.309,-17.778 -4.558,-2.279 0,-6.838 4.787,-8.89 4.789,-2.051 3.177,13.009 8.89,7.294 5.471,-5.47 -9.345,-11.852 3.305,-19.491 12.653,-7.635 -5.584,-5.582 -5.584,-12.65 0,-7.067 7.979,-7.977 7.979,-13.449 0,-3.58 -6.162,-4.171 -10.424,-4.154 l -31.189,31.19 c -0.694,0.693 -1.335,1.418 -1.933,2.168 0.148,5.851 7.16,6.814 11.175,6.814 5.016,0 7.751,7.751 2.737,12.765 -5.014,5.016 -5.387,13.595 -2.114,16.866 2.203,2.206 1.443,6.312 0.708,8.771 l 5.916,5.912 c 1.621,-5.203 8.685,-8.588 18.056,-15.368" />
              <path
                 style="fill:#ffffff"
                 inkscape:connector-curvature="0"
                 id="path48"
                 d="m 93.543,41.044 c 8.619,-1.109 0.641,5.976 4.737,7.768 3.704,1.618 13.599,-3.339 14.686,-10.062 -4.831,-4.083 -10.832,-6.132 -16.809,-6.13 -2.662,0 -5.327,0.412 -7.891,1.224 -0.473,3.449 -0.092,7.893 5.277,7.2" />
              <path
                 style="fill:#ffffff"
                 inkscape:connector-curvature="0"
                 id="path50"
                 d="m 114.599,89.498 c -1.434,-5.905 -15.203,-8.056 -21.801,-3.249 -9.726,7.087 -11.281,20.726 -3.728,21.498 7.554,0.773 14.438,8.093 10.643,15.337 -3.793,7.244 4.584,24.899 13.775,12.095 9.192,-12.803 4.615,-15.301 5.34,-22.352 0.72,-7.048 9.363,-15.99 7.246,-18.594 -2.122,-2.604 -10.352,-0.11 -11.475,-4.735" />
              <path
                 style="fill:#ffffff"
                 inkscape:connector-curvature="0"
                 id="path52"
                 d="m 83.665,157.613 c 3.879,2.117 8.191,3.182 12.494,3.182 h 0.012 c 6.651,0 13.338,-2.534 18.402,-7.597 l 3.215,-3.213 c -5.481,-1.025 -24.537,4.611 -34.123,7.628" />
              <path
                 style="fill:#ffffff"
                 inkscape:connector-curvature="0"
                 id="path54"
                 d="m 138.319,107.358 c -10.275,3.558 -17.391,15.021 -11.461,16.601 5.588,1.488 11.523,-2.986 15.498,1.456 l 10.302,-10.302 c -1.985,-4.05 -5.178,-10.925 -14.339,-7.755" />
              <path
                 style="fill:#ffffff"
                 inkscape:connector-curvature="0"
                 id="path56"
                 d="m 105.108,65.492 c 2.338,-0.313 0.499,-2.935 -0.828,-3.516 -1.327,-0.582 -5.552,-0.283 -3.988,1.63 1.182,1.446 2.481,2.201 4.816,1.886" />
              <path
                 style="fill:#ffffff"
                 inkscape:connector-curvature="0"
                 id="path58"
                 d="m 154.772,96.18 c -0.018,-1.368 -5.071,-2.765 -6.405,-2.646 -1.329,0.125 -1.774,2.366 1.97,3.283 2.824,0.69 4.452,0.73 4.435,-0.637" />
              <path
                 style="fill:#ffffff"
                 inkscape:connector-curvature="0"
                 id="path60"
                 d="m 110.593,54.962 c -0.564,4.5 3.939,6.19 1.688,8.44 -2.251,2.25 -15.5,7.035 -12.382,8.44 8.325,3.748 -5.78,3.222 0,9.003 2.871,2.87 11.933,-2.198 10.974,-5.628 -0.27,-0.97 2.503,-4.625 4.721,-2.698 1.917,1.666 7.844,3.504 7.844,13.321 0,5.226 4.501,10.323 9.103,9.075 3.82,-1.037 4.46,-5.837 2.088,-7.598 -3.03,-2.249 5.093,-4.964 13.362,3.959 3.815,4.115 10.121,-0.905 11.415,-1.175 V 90.1 c -1.125,-4.326 -3.373,-8.424 -6.745,-11.798 L 121.155,46.8 c -5.802,0.603 -10.332,6.321 -10.562,8.162" />
            </g>
          </g>
        </mask>
        <g
           transform="matrix(1.1979585,0,0,1.1979693,-30.931662,-8.0439023)"
           id="g92"
           mask="url(#SVGID_4_)">
          <g
             id="g90">
            <defs
               id="defs68">
              <rect
                 height="128.17599"
                 width="128.17799"
                 y="32.622002"
                 x="32.075001"
                 id="rect923" />
            </defs>
            <clipPath
               id="SVGID_6_">
              <use
                 height="100%"
                 width="100%"
                 y="0"
                 x="0"
                 style="overflow:visible"
                 id="use70"
                 overflow="visible"
                 xlink:href="#SVGID_5_" />
            </clipPath>
            <g
               id="g88"
               clip-path="url(#SVGID_6_)">
              <defs
                 id="defs74">
                <path
                   inkscape:connector-curvature="0"
                   d="m 96.157,32.621 c -6.656,-0.003 -13.34,2.536 -18.4,7.597 L 39.67,78.303 c -4.984,4.983 -7.527,11.542 -7.595,18.098 v 0.569 c 0.068,6.564 2.597,13.144 7.597,18.141 l 38.084,38.087 c 5.06,5.063 11.746,7.603 18.402,7.6 h 0.007 c 6.653,0 13.341,-2.535 18.405,-7.6 l 38.084,-38.087 c 5.068,-5.065 7.599,-11.756 7.598,-18.412 10e-4,-6.651 -2.533,-13.335 -7.592,-18.395 L 114.57,40.217 C 109.508,35.151 102.821,32.62 96.169,32.62 h -0.012 z"
                   id="path928" />
              </defs>
              <clipPath
                 id="SVGID_8_">
                <use
                   height="100%"
                   width="100%"
                   y="0"
                   x="0"
                   style="overflow:visible"
                   id="use76"
                   overflow="visible"
                   xlink:href="#SVGID_7_" />
              </clipPath>
              <linearGradient
                 gradientTransform="matrix(43.2909,-44.829,-44.829,-43.2909,26057.109,25134.764)"
                 y2="578.75201"
                 x2="0.48590001"
                 y1="578.75201"
                 x1="-1.2285"
                 gradientUnits="userSpaceOnUse"
                 id="SVGID_9_">
                <stop
                   id="stop79"
                   style="stop-color:#8CC63F"
                   offset="0" />
                <stop
                   id="stop81"
                   style="stop-color:#C9E39F"
                   offset="0.6137" />
                <stop
                   id="stop83"
                   style="stop-color:#F1F6DE"
                   offset="1" />
              </linearGradient>
              <polygon
                 style="fill:url(#SVGID_9_)"
                 id="polygon86"
                 points="98.401,224.851 -31.977,98.946 93.928,-31.433 224.306,94.472 "
                 clip-path="url(#SVGID_8_)" />
            </g>
          </g>
        </g>
        <g
           transform="matrix(1.1979585,0,0,1.1979693,-30.931662,-8.0439023)"
           style="opacity:0.25"
           id="g112">
          <g
             id="g110">
            <defs
               id="defs95">
              <rect
                 height="128.17599"
                 width="128.177"
                 y="32.622002"
                 x="32.082001"
                 id="rect941" />
            </defs>
            <clipPath
               id="SVGID_11_">
              <use
                 height="100%"
                 width="100%"
                 y="0"
                 x="0"
                 style="overflow:visible"
                 id="use97"
                 overflow="visible"
                 xlink:href="#SVGID_10_" />
            </clipPath>
            <g
               id="g108"
               clip-path="url(#SVGID_11_)">
              <defs
                 id="defs101">
                <rect
                   height="128.17599"
                   width="128.177"
                   y="32.622002"
                   x="32.082001"
                   id="rect946" />
              </defs>
              <clipPath
                 id="SVGID_13_">
                <use
                   height="100%"
                   width="100%"
                   y="0"
                   x="0"
                   style="overflow:visible"
                   id="use103"
                   overflow="visible"
                   xlink:href="#SVGID_12_" />
              </clipPath>
              <path
                 style="fill:#0092c8"
                 inkscape:connector-curvature="0"
                 id="path106"
                 d="M 96.166,160.795 C 89.509,160.799 82.822,158.259 77.765,153.2 L 39.681,115.113 C 34.606,110.043 32.079,103.346 32.082,96.684 32.079,90.033 34.62,83.356 39.677,78.306 L 77.765,40.22 c 5.057,-5.062 11.744,-7.6 18.399,-7.598 6.654,-0.003 13.349,2.531 18.416,7.598 l 38.085,38.086 c 5.06,5.058 7.6,11.743 7.594,18.396 0.005,6.654 -2.533,13.347 -7.594,18.411 L 114.58,153.2 c -5.065,5.066 -11.755,7.598 -18.408,7.595 z M 44.148,82.775 c -3.826,3.827 -5.741,8.853 -5.743,13.909 0.002,5.081 1.912,10.125 5.745,13.958 l 38.086,38.085 c 3.828,3.829 8.863,5.741 13.929,5.744 5.07,-0.003 10.106,-1.912 13.941,-5.744 l 38.084,-38.085 c 3.832,-3.833 5.741,-8.873 5.745,-13.941 -0.003,-5.067 -1.914,-10.098 -5.742,-13.927 L 110.106,44.69 c -3.835,-3.834 -8.873,-5.743 -13.943,-5.746 -5.067,10e-4 -10.1,1.917 -13.928,5.746 z"
                 clip-path="url(#SVGID_13_)" />
            </g>
          </g>
        </g>
        <g
           transform="matrix(1.1979585,0,0,1.1979693,-30.931662,-8.0439023)"
           style="opacity:0.15"
           id="g132">
          <g
             id="g130">
            <defs
               id="defs115">
              <rect
                 height="87.036003"
                 width="124.887"
                 y="32.620998"
                 x="32.082001"
                 id="rect955" />
            </defs>
            <clipPath
               id="SVGID_15_">
              <use
                 height="100%"
                 width="100%"
                 y="0"
                 x="0"
                 style="overflow:visible"
                 id="use117"
                 overflow="visible"
                 xlink:href="#SVGID_14_" />
            </clipPath>
            <g
               id="g128"
               clip-path="url(#SVGID_15_)">
              <defs
                 id="defs121">
                <rect
                   height="87.036003"
                   width="124.887"
                   y="32.620998"
                   x="32.082001"
                   id="rect960" />
              </defs>
              <clipPath
                 id="SVGID_17_">
                <use
                   height="100%"
                   width="100%"
                   y="0"
                   x="0"
                   style="overflow:visible"
                   id="use123"
                   overflow="visible"
                   xlink:href="#SVGID_16_" />
              </clipPath>
              <path
                 style="fill:#ffffff"
                 inkscape:connector-curvature="0"
                 id="path126"
                 d="m 156.97,84.014 c -1.14,-2.049 -2.57,-3.976 -4.304,-5.71 L 114.58,40.22 C 109.511,35.151 102.821,32.621 96.163,32.623 89.511,32.622 82.824,35.157 77.766,40.22 L 39.677,78.304 c -5.057,5.055 -7.597,11.73 -7.595,18.381 -0.002,6.657 2.526,13.358 7.598,18.428 l 4.54,4.544 C 52.275,107.132 91.137,54.294 156.97,84.014"
                 clip-path="url(#SVGID_17_)" />
            </g>
          </g>
        </g>
      </g>
    </g>
    <g
       id="g977"
       transform="matrix(0.19832039,0,0,0.19832039,15.088565,231.28993)">
      <path
         id="path971"
         d="m 471.05,51.6 c -1.245,0 -2.455,0.257 -3.526,0.863 l -33.888,19.57 c -2.193,1.263 -3.526,3.65 -3.526,6.188 v 39.07 c 0,2.537 1.333,4.92 3.526,6.187 l 8.85,5.1 c 4.3,2.12 5.886,2.086 7.843,2.086 6.366,0 10,-3.863 10,-10.577 V 81.542 c 0,-0.545 -0.472,-0.935 -1.007,-0.935 h -4.245 c -0.544,0 -1.007,0.4 -1.007,0.935 v 38.565 c 0,2.976 -3.1,5.97 -8.13,3.454 l -9.2,-5.396 c -0.325,-0.177 -0.576,-0.5 -0.576,-0.863 v -39.07 c 0,-0.37 0.248,-0.748 0.576,-0.935 l 33.817,-19.5 c 0.317,-0.182 0.694,-0.182 1.007,0 l 33.817,19.5 c 0.322,0.193 0.576,0.553 0.576,0.935 v 39.07 c 0,0.373 -0.187,0.755 -0.504,0.935 l -33.888,19.5 c -0.3,0.173 -0.7,0.173 -1.007,0 l -8.706,-5.18 c -0.26,-0.152 -0.613,-0.14 -0.863,0 -2.403,1.362 -2.855,1.52 -5.108,2.302 -0.555,0.193 -1.4,0.494 0.288,1.44 l 11.368,6.7 c 1.082,0.626 2.288,0.935 3.526,0.935 1.255,0 2.443,-0.3 3.526,-0.935 l 33.888,-19.5 c 2.193,-1.276 3.526,-3.65 3.526,-6.187 v -39.07 c 0,-2.538 -1.333,-4.92 -3.526,-6.188 l -33.888,-19.57 c -1.062,-0.606 -2.28,-0.863 -3.526,-0.863 z m 9.066,27.918 c -9.65,0 -15.397,4.107 -15.397,10.936 0,7.4 5.704,9.444 14.966,10.36 11.08,1.085 11.944,2.712 11.944,4.893 0,3.783 -3.016,5.396 -10.145,5.396 -8.956,0 -10.925,-2.236 -11.584,-6.7 -0.078,-0.478 -0.446,-0.863 -0.935,-0.863 h -4.4 a 1.03,1.03 0 0 0 -1.007,1.007 c 0,5.703 3.102,12.447 17.916,12.447 10.723,0 16.908,-4.2 16.908,-11.584 0,-7.3 -4.996,-9.273 -15.397,-10.65 -10.5,-1.4 -11.512,-2.07 -11.512,-4.533 0,-2.032 0.85,-4.75 8.634,-4.75 6.953,0 9.523,1.5 10.577,6.188 0.092,0.44 0.48,0.8 0.935,0.8 h 4.4 c 0.27,0 0.532,-0.166 0.72,-0.36 0.184,-0.207 0.314,-0.44 0.288,-0.72 -0.68,-8.074 -6.064,-11.872 -16.908,-11.872 z"
         inkscape:connector-curvature="0"
         style="fill:#83cd29" />
      <path
         id="path973"
         d="m 271.82,0.383 a 2.18,2.18 0 0 0 -1.079,0.288 2.18,2.18 0 0 0 -1.079,1.871 v 55.042 c 0,0.54 -0.252,1.024 -0.72,1.295 a 1.5,1.5 0 0 1 -1.511,0 l -8.994,-5.18 a 4.31,4.31 0 0 0 -4.317,0 L 218.218,74.42 c -1.342,0.774 -2.16,2.264 -2.16,3.813 v 41.443 a 4.31,4.31 0 0 0 2.159,3.741 l 35.903,20.722 a 4.3,4.3 0 0 0 4.317,0 l 35.903,-20.722 a 4.31,4.31 0 0 0 2.159,-3.741 V 16.356 c 0,-1.572 -0.858,-3.047 -2.23,-3.813 L 272.9,0.598 c -0.336,-0.187 -0.708,-0.22 -1.08,-0.216 z M 40.86,52.115 c -0.685,0.028 -1.328,0.147 -1.943,0.504 L 3.015,73.34 A 4.3,4.3 0 0 0 0.857,77.081 L 0.93,132.7 c 0,0.774 0.4,1.492 1.08,1.87 0.667,0.4 1.494,0.4 2.158,0 l 21.297,-12.232 c 1.35,-0.8 2.23,-2.196 2.23,-3.74 V 92.623 c 0,-1.55 0.815,-2.97 2.16,-3.74 l 9.066,-5.252 a 4.25,4.25 0 0 1 2.158,-0.576 4.24,4.24 0 0 1 2.159,0.576 L 52.3,88.88 c 1.343,0.77 2.158,2.192 2.158,3.74 v 25.974 c 0,1.546 0.9,2.95 2.23,3.74 l 21.297,12.232 c 0.67,0.4 1.495,0.4 2.158,0 0.66,-0.38 1.08,-1.097 1.08,-1.87 L 81.295,77.079 A 4.28,4.28 0 0 0 79.137,73.338 L 43.235,52.618 c -0.607,-0.356 -1.253,-0.476 -1.943,-0.504 h -0.43 z m 322.624,0.504 a 4.29,4.29 0 0 0 -2.159,0.576 l -35.903,20.722 c -1.34,0.775 -2.16,2.192 -2.16,3.74 V 119.1 c 0,1.558 0.878,2.97 2.23,3.74 l 35.615,20.3 c 1.315,0.75 2.92,0.807 4.245,0.07 l 21.585,-12.016 c 0.685,-0.38 1.148,-1.09 1.15,-1.87 0.002,-0.78 -0.403,-1.482 -1.08,-1.87 l -36.12,-20.722 c -0.676,-0.386 -1.15,-1.167 -1.15,-1.943 V 91.83 c 0,-0.774 0.48,-1.484 1.15,-1.87 l 11.224,-6.476 c 0.668,-0.386 1.488,-0.386 2.16,0 L 375.5,89.96 a 2.15,2.15 0 0 1 1.079,1.87 v 10.217 a 2.15,2.15 0 0 0 1.079,1.87 c 0.673,0.388 1.488,0.39 2.16,0 L 401.33,91.4 c 1.335,-0.776 2.16,-2.197 2.16,-3.74 v -10 a 4.32,4.32 0 0 0 -2.159,-3.741 L 365.644,53.197 a 4.28,4.28 0 0 0 -2.159,-0.576 z m -107.35,30.94 a 1.21,1.21 0 0 1 0.576,0.143 l 12.303,7.123 c 0.334,0.193 0.576,0.55 0.576,0.935 v 14.246 c 0,0.387 -0.24,0.743 -0.576,0.935 l -12.303,7.123 c -0.335,0.19 -0.744,0.19 -1.08,0 l -12.303,-7.123 c -0.335,-0.193 -0.576,-0.55 -0.576,-0.935 V 91.758 c 0,-0.386 0.242,-0.74 0.576,-0.935 l 12.303,-7.122 c 0.168,-0.097 0.316,-0.143 0.504,-0.143 v -0.001 z"
         inkscape:connector-curvature="0"
         style="fill:#404137" />
      <path
         id="path975"
         d="m 148.714,52.402 a 4.31,4.31 0 0 0 -2.16,0.576 l -35.903,20.65 c -1.342,0.774 -2.158,2.265 -2.158,3.813 v 41.443 a 4.3,4.3 0 0 0 2.158,3.74 l 35.903,20.722 a 4.3,4.3 0 0 0 4.317,0 l 35.903,-20.722 a 4.31,4.31 0 0 0 2.159,-3.741 V 77.44 c 0,-1.55 -0.816,-3.04 -2.16,-3.813 L 150.87,52.977 a 4.27,4.27 0 0 0 -2.16,-0.576 z m 214.7,36.983 c -0.143,0 -0.302,0 -0.432,0.07 l -6.907,4.03 a 0.84,0.84 0 0 0 -0.432,0.719 v 7.915 c 0,0.298 0.173,0.57 0.432,0.72 l 6.907,3.957 a 0.75,0.75 0 0 0 0.79,0 l 6.907,-3.957 c 0.256,-0.147 0.432,-0.422 0.432,-0.72 v -7.915 c 0,-0.298 -0.175,-0.57 -0.432,-0.72 l -6.907,-4.03 c -0.128,-0.076 -0.216,-0.07 -0.36,-0.07 z"
         inkscape:connector-curvature="0"
         style="fill:#83cd29" />
    </g>
    <g
       id="g999"
       transform="translate(3.4017857,51.026786)">
      <rect
         y="191.98555"
         x="133.00572"
         height="7.3657813"
         width="34.900867"
         id="rect991"
         style="fill:#404137;fill-opacity:1;stroke:none;stroke-width:0.29867753;stroke-miterlimit:4;stroke-dasharray:none;stroke-opacity:1" />
      <path
         transform="rotate(-4.5457192,139.03838,237.47298)"
         inkscape:transform-center-y="-0.011022157"
         inkscape:transform-center-x="-2.1033981"
         d="m 170.35582,205.31821 1.19826,-14.58983 12.03603,8.33264 z"
         inkscape:randomized="0"
         inkscape:rounded="0"
         inkscape:flatsided="true"
         sodipodi:arg2="3.2235385"
         sodipodi:arg1="2.176341"
         sodipodi:r2="4.2259021"
         sodipodi:r1="8.4518042"
         sodipodi:cy="198.3692"
         sodipodi:cx="175.16667"
         sodipodi:sides="3"
         id="path995"
         style="fill:#404137;fill-opacity:1;stroke:none;stroke-width:0.47624999;stroke-miterlimit:4;stroke-dasharray:none;stroke-opacity:1"
         sodipodi:type="star" />
    </g>
    <g
       aria-label="REST"
       style="font-style:normal;font-weight:normal;font-size:8.70931339px;line-height:0;font-family:sans-serif;letter-spacing:0px;word-spacing:0px;fill:#404137;fill-opacity:1;stroke:none;stroke-width:0.21773283;stroke-opacity:1"
       id="text4636">
      <path
         d="m 145.35837,233.38002 q 0.36856,0.12474 0.71443,0.53299 0.35155,0.40825 0.7031,1.12268 l 1.16238,2.31342 h -1.23042 l -1.083,-2.17166 q -0.41959,-0.85052 -0.81649,-1.12836 -0.39124,-0.27783 -1.07166,-0.27783 h -1.24743 v 3.57785 h -1.14536 v -8.4655 h 2.58558 q 1.45155,0 2.16598,0.6067 0.71444,0.6067 0.71444,1.83145 0,0.79949 -0.37423,1.32681 -0.36856,0.52732 -1.07732,0.73145 z m -2.86909,-3.55517 v 3.00517 h 1.44022 q 0.82783,0 1.24742,-0.3799 0.42526,-0.38557 0.42526,-1.12836 0,-0.74278 -0.42526,-1.11701 -0.41959,-0.3799 -1.24742,-0.3799 z"
         style="font-size:11.61241817px;fill:#404137;fill-opacity:1;stroke:none;stroke-width:0.21773283;stroke-opacity:1"
         id="path4638" />
      <path
         d="m 149.41251,228.88361 h 5.3526 v 0.96392 h -4.20724 v 2.50619 h 4.03146 v 0.96393 h -4.03146 v 3.06753 h 4.3093 v 0.96393 h -5.45466 z"
         style="font-size:11.61241817px;fill:#404137;fill-opacity:1;stroke:none;stroke-width:0.21773283;stroke-opacity:1"
         id="path4640" />
      <path
         d="m 161.82441,229.16144 v 1.11702 q -0.65206,-0.31186 -1.23041,-0.46495 -0.57836,-0.1531 -1.11702,-0.1531 -0.93557,0 -1.44588,0.36289 -0.50464,0.36289 -0.50464,1.03197 0,0.56134 0.33454,0.85051 0.3402,0.28351 1.28144,0.45929 l 0.69176,0.14175 q 1.28145,0.24381 1.88815,0.86186 0.61238,0.61237 0.61238,1.64433 0,1.23042 -0.82784,1.86548 -0.82217,0.63505 -2.41548,0.63505 -0.60103,0 -1.28145,-0.13608 -0.67474,-0.13609 -1.40052,-0.40258 v -1.17939 q 0.69743,0.39124 1.3665,0.58969 0.66908,0.19846 1.31547,0.19846 0.98093,0 1.51393,-0.38557 0.53299,-0.38557 0.53299,-1.1 0,-0.62372 -0.38557,-0.97527 -0.3799,-0.35154 -1.2531,-0.52732 l -0.69742,-0.13608 q -1.28145,-0.25516 -1.85413,-0.79949 -0.57269,-0.54433 -0.57269,-1.51392 0,-1.12269 0.78815,-1.76908 0.79382,-0.6464 2.183,-0.6464 0.59536,0 1.21341,0.10774 0.61804,0.10773 1.26443,0.32319 z"
         style="font-size:11.61241817px;fill:#404137;fill-opacity:1;stroke:none;stroke-width:0.21773283;stroke-opacity:1"
         id="path4642" />
      <path
         d="m 162.9471,228.88361 h 7.16137 v 0.96392 h -3.00517 v 7.50158 h -1.15103 v -7.50158 h -3.00517 z"
         style="font-size:11.61241817px;fill:#404137;fill-opacity:1;stroke:none;stroke-width:0.21773283;stroke-opacity:1"
         id="path4644" />
    </g>
  </g>
</svg>
